<svg width="26" height="34" viewBox="0 0 26 34" fill="none" xmlns="http://www.w3.org/2000/svg">
<path d="M13 0C14.3924 0 15.7277 0.553124 16.7123 1.53769C17.6969 2.52226 18.25 3.85761 18.25 5.25V15.75C18.25 17.1424 17.6969 18.4777 16.7123 19.4623C15.7277 20.4469 14.3924 21 13 21C11.6076 21 10.2723 20.4469 9.28769 19.4623C8.30312 18.4777 7.75 17.1424 7.75 15.75V5.25C7.75 3.85761 8.30312 2.52226 9.28769 1.53769C10.2723 0.553124 11.6076 0 13 0ZM25.25 15.75C25.25 21.9275 20.6825 27.02 14.75 27.8775V33.25H11.25V27.8775C5.3175 27.02 0.75 21.9275 0.75 15.75H4.25C4.25 18.0706 5.17187 20.2962 6.81282 21.9372C8.45376 23.5781 10.6794 24.5 13 24.5C15.3206 24.5 17.5462 23.5781 19.1872 21.9372C20.8281 20.2962 21.75 18.0706 21.75 15.75H25.25Z" fill="white"/>
</svg>
