<svg width="12" height="14" viewBox="0 0 12 14" fill="none" xmlns="http://www.w3.org/2000/svg">
<path d="M4.85132 10.0099C4.85465 9.9366 4.97598 9.90726 5.01132 9.97126C5.18065 10.2713 5.46865 10.7119 5.79598 10.9126C6.12265 11.1126 6.64598 11.1699 6.98998 11.1846C7.06332 11.1879 7.09265 11.3086 7.02865 11.3446C6.72865 11.5139 6.28798 11.8019 6.08732 12.1286C5.88665 12.4553 5.82998 12.9793 5.81532 13.3233C5.81198 13.3966 5.69065 13.4253 5.65532 13.3613C5.48598 13.0613 5.19798 12.6213 4.87132 12.4206C4.54465 12.2199 4.02065 12.1633 3.67665 12.1486C3.60332 12.1453 3.57465 12.0239 3.63865 11.9886C3.93865 11.8193 4.37865 11.5313 4.57932 11.2039C4.77998 10.8773 4.83665 10.3533 4.85132 10.0099ZM10.328 9.34326C10.3227 9.26993 10.1947 9.23926 10.1567 9.30193C10.042 9.4906 9.87599 9.71726 9.69199 9.8306C9.50799 9.94393 9.22998 9.98793 9.00998 10.0053C8.93665 10.0106 8.90665 10.1386 8.96865 10.1766C9.15732 10.2913 9.38465 10.4566 9.49732 10.6413C9.60999 10.8259 9.65532 11.1033 9.67198 11.3233C9.67798 11.3966 9.80532 11.4266 9.84399 11.3639C9.95865 11.1759 10.124 10.9486 10.3087 10.8359C10.4933 10.7233 10.77 10.6779 10.99 10.6613C11.0633 10.6553 11.094 10.5279 11.0313 10.4893C10.8427 10.3746 10.6153 10.2093 10.5027 10.0246C10.39 9.83993 10.3453 9.56326 10.328 9.34326ZM7.80265 1.66793L7.64132 1.46393C7.01665 0.675264 6.70465 0.280597 6.34132 0.338597C5.97798 0.397264 5.80398 0.869264 5.45665 1.81393L5.36732 2.05793C5.26798 2.3266 5.21865 2.4606 5.12465 2.55926C5.02932 2.65793 4.90065 2.70926 4.64198 2.8126L4.40665 2.9066L4.24132 2.97326C3.44132 3.29326 3.03865 3.47526 2.98732 3.8286C2.93265 4.20526 3.31398 4.52793 4.07665 5.1726L4.27398 5.33926C4.49065 5.5226 4.59932 5.6146 4.66065 5.73926C4.72332 5.86393 4.73198 6.00793 4.74998 6.29593L4.76598 6.55793C4.82798 7.57126 4.85932 8.07793 5.18865 8.2526C5.51798 8.42726 5.92732 8.1546 6.74599 7.6086L6.95798 7.46726C7.19132 7.31193 7.30732 7.23393 7.43998 7.21326C7.57332 7.19193 7.70798 7.22926 7.97732 7.30393L8.22265 7.37193C9.17065 7.6346 9.64465 7.76593 9.90265 7.49726C10.1613 7.2286 10.0333 6.73726 9.77598 5.75526L9.70999 5.50126C9.63665 5.22193 9.60065 5.0826 9.62065 4.9446C9.64065 4.8066 9.71532 4.68526 9.86399 4.44326L9.99932 4.22326C10.5233 3.3726 10.7853 2.94726 10.6153 2.60593C10.446 2.26593 9.95732 2.2346 8.97932 2.17393L8.72665 2.15793C8.44865 2.1406 8.30999 2.13193 8.18932 2.06793C8.06932 2.00393 7.97999 1.89193 7.80265 1.66793ZM3.88998 7.88393C2.46532 8.57993 1.27932 9.6826 0.831985 10.9999C0.330651 7.86193 1.02665 5.83526 2.14198 4.57526C2.23798 4.77193 2.36332 4.9346 2.47532 5.06193C2.70865 5.32593 3.04332 5.6086 3.38332 5.89593L3.62798 6.1026L3.74132 6.19926C3.74465 6.24193 3.74798 6.2926 3.75132 6.35726L3.77132 6.6806C3.79798 7.11726 3.82465 7.54326 3.88998 7.88393Z" fill="white"/>
</svg>
