<svg width="17" height="14" viewBox="0 0 17 14" fill="none" xmlns="http://www.w3.org/2000/svg">
<path d="M17 1.70441C16.3634 1.98892 15.6882 2.17565 14.9968 2.25838C15.717 1.82297 16.2699 1.13349 16.5303 0.311979C15.8457 0.721768 15.0967 1.0105 14.3156 1.16571C13.6794 0.481989 12.773 0.0546875 11.7698 0.0546875C9.8436 0.0546875 8.28192 1.62992 8.28192 3.57277C8.28192 3.84855 8.3128 4.11703 8.37223 4.37459C5.4736 4.22783 2.90368 2.82722 1.18343 0.698687C0.883269 1.2183 0.711277 1.82271 0.711277 2.46738C0.711277 3.68799 1.32706 4.76478 2.26286 5.39572C1.70899 5.37825 1.16731 5.22735 0.683055 4.95563C0.682878 4.97036 0.682811 4.98512 0.682855 4.9999C0.682855 6.70449 1.88507 8.12646 3.48055 8.44966C2.96695 8.59054 2.42823 8.61116 1.90553 8.50995C2.34932 9.90767 3.6374 10.9248 5.16355 10.9533C3.9699 11.8968 2.466 12.4593 0.832004 12.4593C0.550441 12.4593 0.272863 12.4426 0 12.4101C1.54348 13.4083 3.37676 13.9908 5.34637 13.9908C11.7617 13.9908 15.2697 8.62986 15.2697 3.98078C15.2697 3.82819 15.2664 3.67647 15.2596 3.52562C15.9424 3.02764 16.5317 2.41094 17 1.70441Z" fill="#55ACEE"/>
</svg>
